<svg data-v-0dd9719b="" version="1.0" xmlns="http://www.w3.org/2000/svg" xmlns:xlink="http://www.w3.org/1999/xlink" width="100%" height="100%" viewBox="0 0 340.000000 250.000000" preserveAspectRatio="xMidYMid meet" color-interpolation-filters="sRGB" style="margin: auto;"> <rect data-v-0dd9719b="" x="0" y="0" width="100%" height="100%" fill="#fff" fill-opacity="1" class="background"></rect> <rect data-v-0dd9719b="" x="0" y="0" width="100%" height="100%" fill="url(#watermark)" fill-opacity="1" class="watermarklayer"></rect> <g data-v-0dd9719b="" fill="#ea6000" class="icon-text-wrapper icon-svg-group iconsvg" transform="translate(48.48500061035156,96.80374908447266)"><g class="iconsvg-imagesvg" transform="translate(0,2.367136001586914)"><g><rect fill="#ea6000" fill-opacity="0" stroke-width="2" x="0" y="0" width="60" height="51.658229155904536" class="image-rect"></rect> <svg x="0" y="0" width="60" height="51.658229155904536" filtersec="colorsb3874416440" class="image-svg-svg primary" style="overflow: visible;"><svg version="1.1" id="图层_1" xmlns="http://www.w3.org/2000/svg" xmlns:xlink="http://www.w3.org/1999/xlink" x="0px" y="0px" viewBox="1.5250015258789062 1.6500000953674316 103.47000122070312 89.08499908447266" enable-background="new 0 0 106 92" xml:space="preserve">
<g>
	<g>
		<path fill="#E50012" d="M30.76,39.01c0,12.41,10.1,22.5,22.5,22.5c6.01,0,11.65-2.34,15.9-6.59c4.25-4.25,6.59-9.89,6.59-15.91
			c0-6.01-2.34-11.66-6.59-15.91c-4.25-4.25-9.9-6.59-15.9-6.59C40.86,16.51,30.76,26.6,30.76,39.01z M40.92,39.01
			c0-6.8,5.54-12.35,12.35-12.35c6.8,0,12.35,5.54,12.35,12.35c0,6.81-5.54,12.35-12.35,12.35C46.45,51.35,40.92,45.81,40.92,39.01z
			"></path>
	</g>
	<path fill="#FCCF00" d="M82.64,9.54c0.01,0.01,0.03,0.03,0.04,0.04c16.22,16.23,16.22,42.62,0,58.85
		c-16.22,16.23-42.62,16.23-58.85,0c-16.22-16.22-16.22-42.62,0-58.85l0,0l-7.17-7.18h0c-20.18,20.18-20.18,53.02,0,73.2
		c20.18,20.18,53.02,20.18,73.2,0c20.18-20.18,20.18-53.02,0-73.2c-0.02-0.01-0.03-0.03-0.05-0.04L82.64,9.54z"></path>
	<path fill="#EA6000" d="M80.47,38.95c0,0.02,0.01,0.04,0.01,0.06c0,15-12.21,27.21-27.21,27.21c-15.01,0-27.21-12.21-27.21-27.21
		c0-15,12.2-27.21,27.21-27.21l0,0V1.65l0,0c-20.6,0-37.36,16.76-37.36,37.36c0,20.6,16.76,37.36,37.36,37.36
		c20.6,0,37.36-16.76,37.36-37.36c0-0.02,0-0.04,0-0.06H80.47z"></path>
</g>
</svg></svg> <!----></g></g> <g transform="translate(67,0)"><g data-gra="path-name" fill-rule="" class="tp-name iconsvg-namesvg" transform="translate(0,0)"><g transform="scale(1)"><g><path d="M7.92 3.87L37.13 3.87 37.13-26.19 43.34-26.19 43.34-31.95 37.13-31.95 37.13-36.67 30.96-36.67 30.96-31.95 14.04-31.95 14.04-36.67 7.88-36.67 7.88-31.95 1.67-31.95 1.67-26.19 7.88-26.19ZM14.04-1.89L14.04-11.34 31-11.34 31-1.89ZM14.04-17.01L14.04-26.19 30.96-26.19 31-17.01ZM50.45-14.45L65.16-14.45 65.16 4.5 70.78 4.5 70.78-14.45 84.64-14.45 84.64-21.73 88.29-21.73 88.29-27.49 84.64-27.49 84.64-34.88 70.78-34.88 70.78-36.9 64.94-36.9 64.94-34.88 50.45-34.88 50.45-29.43 64.94-29.43 64.94-27.22 46.8-27.22 46.8-22.05 64.94-22.05 64.94-19.8 50.45-19.8ZM46.4 4.54L52.88 4.54C54.67-1.21 55.39-6.97 55.53-13.28L49.91-13.28C49.73-6.93 48.6-1.26 46.4 4.54ZM56.52 2.7L61.7 2.7 63.54-11.61 58.41-11.61ZM70.78-19.8L70.78-22.05 78.88-22.05 78.88-19.8ZM70.78-27.22L70.78-29.43 78.88-29.43 78.88-27.22ZM72.54-11.61L74.3 2.7 79.29 2.7 77.58-11.61ZM81.09 4.5L86.72 4.5 86.72-13.37 81.09-13.37ZM119.97 4.5L132.75 4.5 132.75-1.17 125.73-1.17 125.73-15.03 99.72-15.03C99.72-5.8 97.56-1.03 92.39 4.5L100.39 4.5C103.55 0.27 104.98-4.05 105.53-9.45L119.97-9.45ZM92.16-15.43L97.38-15.43C98.5-19.48 99.05-23.76 99.18-28.13L94.41-28.13C94.19-23.8 93.47-19.53 92.16-15.43ZM92.92-29.29L100.62-29.29 100.62-16.2 106.38-16.2 106.38-22.45 110.25-21.02 110.25-25.92 106.38-27.36 106.38-29.29 111.87-29.29 111.87-34.02 106.38-34.02 106.38-36.45 100.62-36.45 100.62-34.02 92.92-34.02ZM108.27-7.42L110.56 2.21 116.41 2.21 114.12-7.42ZM110.16-17.01L115.25-17.01C116.33-20.56 116.95-24.25 117.18-28.13L112.41-28.13C112.14-24.34 111.42-20.61 110.16-17.01ZM113.13-29.29L118.71-29.29 118.71-16.2 124.2-16.2 124.2-29.29 132.07-29.29 132.07-34.02 124.47-34.02 124.47-36.45 118.71-36.45 118.71-34.02 113.13-34.02ZM125.82-28.13C125.95-23.76 126.5-19.44 127.62-15.43L132.84-15.43C131.53-19.53 130.81-23.8 130.59-28.13ZM147.28-4.91L167.72-4.91 167.72-0.58 147.28-0.58ZM137.29-8.82C138.74-9 140.09-9.18 141.44-9.4L141.44 4.18 173.56 4.18 173.56-9.4C174.91-9.18 176.26-9 177.7-8.82L177.7-14.08C172.17-14.85 167.72-15.75 163.98-16.88 168.12-19.53 171.05-22.77 173.16-26.46L176.81-26.46 176.81-34.96 160.47-34.96 160.47-36.9 154.53-36.9 154.53-34.96 138.19-34.96 138.19-26.46 144.04-26.46 144.04-29.56 170.95-29.56 170.95-27.4 146.47-27.4C144.76-25.43 142.47-23.89 139.05-22.72L139.05-17.86C141.84-18.27 144.31-19.26 146.38-20.52 147.74-19.21 149.26-18 151.02-16.88 147.28-15.75 142.83-14.85 137.29-14.08ZM142.92-9.63C148.68-10.62 153.45-11.92 157.45-13.54 161.5-11.92 166.28-10.62 172.08-9.63ZM152.24-22.72L162.76-22.72C161.19-21.46 159.48-20.34 157.5-19.35 155.52-20.34 153.81-21.46 152.24-22.72Z" transform="translate(-1.6700000762939453, 36.900001525878906)"></path></g> <!----> <!----> <!----> <!----> <!----> <!----> <!----></g></g> <g data-gra="path-slogan" fill-rule="" class="tp-slogan iconsvg-slogansvg" fill="#ea6000" transform="translate(5,47.44000244140625)"><rect x="0" height="1" y="3.9750003814697266" width="37.77944564819336"></rect> <rect height="1" y="3.9750003814697266" width="37.77944564819336" x="128.25055313110352"></rect> <g transform="translate(40.77944564819336,0)"><g transform="scale(1)"><path d="M7.31-3.61L4.69-3.61L4.69-4.59L8.44-4.59L8.44 0L7.69 0L7.41-1.08Q6.42 0.09 4.59 0.14L4.59 0.14Q2.86 0.14 1.92-0.75L1.92-0.75Q0.52-2.06 0.56-4.36L0.56-4.36Q0.89-8.63 4.64-8.81L4.64-8.81Q7.83-8.63 8.30-6L8.30-6L7.17-6Q6.70-7.78 4.59-7.83L4.59-7.83Q1.92-7.64 1.78-4.31L1.78-4.31Q1.78-0.75 4.64-0.75L4.64-0.75Q5.67-0.75 6.42-1.31L6.42-1.31Q7.36-2.06 7.31-3.61L7.31-3.61ZM15.89 0L15.05-2.48L11.58-2.48L10.69 0L9.52 0L12.75-8.58L14.06-8.58L17.16 0L15.89 0ZM13.31-7.31L11.95-3.52L14.63-3.52L13.36-7.31L13.31-7.31ZM19.59-8.58L23.91-1.64L23.91-8.58L25.03-8.58L25.03 0L23.72 0L19.36-6.94L19.31-6.94L19.31 0L18.19 0L18.19-8.58L19.59-8.58ZM33.09-6.09L33.09-6.09L32.02-6.09Q31.92-7.73 29.86-7.83L29.86-7.83Q27.94-7.78 27.94-6.33L27.94-6.33Q27.94-5.39 28.97-5.25L28.97-5.25L31.41-4.69Q33.33-4.22 33.33-2.34L33.33-2.34Q33.28 0.05 29.95 0.14L29.95 0.14Q28.13 0.14 27.38-0.61L27.38-0.61Q26.44-1.31 26.48-2.77L26.48-2.77L27.61-2.77Q27.66-0.80 29.95-0.75L29.95-0.75Q32.20-0.80 32.25-2.20L32.25-2.20Q32.44-3.38 30.38-3.75L30.38-3.75L28.59-4.13Q26.77-4.64 26.77-6.19L26.77-6.19Q26.91-8.72 29.77-8.81L29.77-8.81Q33-8.81 33.09-6.09ZM40.45-3.19L40.45-8.58L41.63-8.58L41.63-3.05Q41.48 0.05 38.11 0.14L38.11 0.14Q34.97 0.05 34.83-2.86L34.83-2.86L34.83-8.58L36-8.58L36-3.19Q36.05-0.84 38.16-0.80L38.16-0.80Q40.45-0.84 40.45-3.19L40.45-3.19ZM52.27-3.89L48.05-3.89L48.05 0L46.88 0L46.88-8.58L52.83-8.58L52.83-7.59L48.05-7.59L48.05-4.92L52.27-4.92L52.27-3.89ZM59.67 0L58.83-2.48L55.36-2.48L54.47 0L53.30 0L56.53-8.58L57.84-8.58L60.94 0L59.67 0ZM57.09-7.31L55.73-3.52L58.41-3.52L57.14-7.31L57.09-7.31ZM63.38-8.58L67.69-1.64L67.69-8.58L68.81-8.58L68.81 0L67.50 0L63.14-6.94L63.09-6.94L63.09 0L61.97 0L61.97-8.58L63.38-8.58ZM73.13-4.31L71.77-3.05L71.77 0L70.59 0L70.59-8.58L71.77-8.58L71.77-4.41L75.94-8.58L77.58-8.58L73.97-5.11L77.67 0L76.13 0L73.13-4.31ZM79.88-1.03L85.03-1.03L85.03 0L78.70 0L78.70-8.58L84.94-8.58L84.94-7.59L79.88-7.59L79.88-4.92L84.56-4.92L84.56-3.89L79.88-3.89L79.88-1.03Z" transform="translate(-0.5609879032258065, 8.8125)"></path></g></g></g></g></g><defs v-gra="od"></defs></svg>